# Generated by Visualization Toolkit
v 0.005481999833136797 0.0491270013153553 0.007546000182628632
v 0 0.05027399957180023 0.012600000016391277
v 0 0.05291999876499176 0
v 0.005758000072091818 0.04797999933362007 0.0018710000440478325
v 0.01014699973165989 0.04436499997973442 0.013965999707579613
v 0 0.044982001185417175 0.021764000877738
v 0.012138999998569489 0.04374700039625168 0.003944000229239464
v -0.004954000003635883 0.050978999584913254 0.006818000227212906
v -0.007934999652206898 0.04339500144124031 0.01092199981212616
v 0.005758000072091818 0.04797999933362007 -0.0018710000440478325
v 0.0038950000889599323 0.04974399879574776 -0.005361999850720167
v 0 0.05150900036096573 -0.007199999876320362
v -0.003367000026628375 0.05159600079059601 -0.004633000120520592
v -0.004046000074595213 0.05168500170111656 -0.0013150000013411045
v -0.004046000074595213 0.05168500170111656 0.0013150000013411045
v 0.012138999998569489 0.04374700039625168 -0.003944000229239464
v 0.012023000046610832 0.03395700082182884 0.016548000276088715
v 0 0.035280000418424606 0.024708999320864677
v 0.015406999737024307 0.03263400122523308 0.005005999933928251
v -0.008175999857485294 0.03501499816775322 0.011253000237047672
v 0.015406999737024307 0.03263400122523308 -0.005005999933928251
v -0.004980999976396561 0.04180699959397316 0.001617999980226159
v -0.002956999931484461 0.03475100174546242 0.0009609999833628535
v 0.008992999792098999 0.04656900092959404 -0.012377999722957611
v 0 0.04939199984073639 -0.01783600077033043
v -0.006781000178307295 0.04559899866580963 -0.009332999587059021
v -0.004980999976396561 0.04180699959397316 -0.001617999980226159
v 0.012600000016391277 0.03492699936032295 -0.017342999577522278
v 0.011013000272214413 0.023814000189304352 0.015158000402152538
v 0 0.023814000189304352 0.021436000242829323
v 0.01525100041180849 0.023814000189304352 0.004954999778419733
v -0.00735800014808774 0.0255769994109869 0.010127999819815159
v 0.01525100041180849 0.023814000189304352 -0.004954999778419733
v -0.00342399999499321 0.027341999113559723 0.0011119999689981341
v 0.011590000241994858 0.02346000075340271 -0.015953000634908676
v -0.002956999931484461 0.03475100174546242 -0.0009609999833628535
v -0.00342399999499321 0.027341999113559723 -0.0011119999689981341
v 0 0.037220001220703125 -0.026673000305891037
v -0.008751999586820602 0.035985998809337616 -0.012047000229358673
v 0 0.02310900017619133 -0.023399999365210533
v 0.008511999621987343 0.016493000090122223 0.01171599980443716
v 0 0.018345000222325325 0.015545999631285667
v 0.012760999612510204 0.01464099995791912 0.004145999904721975
v -0.00788700021803379 0.015434999950230122 0.010855999775230885
v 0.012760999612510204 0.01464099995791912 -0.004145999904721975
v -0.010738000273704529 0.012524000369012356 0.0034890000242739916
v 0.009088999591767788 0.016228999942541122 -0.012511000037193298
v -0.010738000273704529 0.012524000369012356 -0.0034890000242739916
v 0 0.017815999686717987 -0.01750900037586689
v -0.007934999652206898 0.025225000455975533 -0.01092199981212616
v -0.008464000187814236 0.015170999802649021 -0.011649999767541885
v 0.006924999877810478 0.00873200036585331 0.009530999697744846
v 0 0.00864300038665533 0.013418000191450119
v 0.009649000130593777 0.008820000104606152 0.0031349998898804188
v -0.006924999877810478 0.007937000133097172 0.009530999697744846
v 0.009649000130593777 0.008820000104606152 -0.0031349998898804188
v -0.009649000130593777 0.00723200011998415 0.0031349998898804188
v 0.007550999987870455 0.008555999957025051 -0.01039199996739626
v -0.009649000130593777 0.00723200011998415 -0.0031349998898804188
v 0 0.008290999568998814 -0.015545999631285667
v -0.007550999987870455 0.007761000189930201 -0.01039199996739626
v 0.003990999888628721 0.003969000186771154 0.005495000164955854
v 0 0.0042329998686909676 0.008182000368833542
v 0.005135000217705965 0.003705000039190054 0.0016690000193193555
v -0.004424000158905983 0.003616000059992075 0.006089000031352043
v 0.005135000217705965 0.003705000039190054 -0.0016690000193193555
v -0.006535999942570925 0.0029990000184625387 0.002124000107869506
v 0.004616999998688698 0.00343999988399446 -0.00635500019416213
v -0.006535999942570925 0.0029990000184625387 -0.002124000107869506
v 0 0.0031739999540150166 -0.010308999568223953
v -0.0050490000285208225 0.0030869999900460243 -0.006949999835342169
v 0 0 0
vn 0.4939880073070526 0.8593710064888 0.13212700188159943
vn -0.010377000086009502 0.9464349746704102 0.3227280080318451
vn 0.1959179937839508 0.9806039929389954 -0.005723999813199043
vn 0.6056979894638062 0.7955489754676819 -0.015230000019073486
vn 0.6587979793548584 0.6349310278892517 0.40354299545288086
vn -0.2038320004940033 0.6770099997520447 0.7071840167045593
vn 0.7952690124511719 0.6011840105056763 0.0782570019364357
vn -0.5704349875450134 0.8153650164604187 0.09891699999570847
vn -0.9562180042266846 0.2908659875392914 0.032304998487234116
vn 0.611536979675293 0.790926992893219 0.021378999575972557
vn 0.5322440266609192 0.843953013420105 -0.0667869970202446
vn 0.007726000156253576 0.9711340069770813 -0.23840799927711487
vn -0.612060010433197 0.7859560251235962 -0.0874980017542839
vn -0.767333984375 0.6387739777565002 0.0562720000743866
vn -0.7463930249214172 0.6613410115242004 -0.07432900369167328
vn 0.7982410192489624 0.6018589735031128 -0.02402999997138977
vn 0.7844880223274231 0.1092899963259697 0.6104369759559631
vn -0.2323630005121231 0.0484360009431839 0.971422016620636
vn 0.9774069786071777 0.13879600167274475 0.1594109982252121
vn -0.998714029788971 -0.004972999915480614 0.05046200007200241
vn 0.9849709868431091 0.1267949938774109 -0.1172809973359108
vn -0.9793800115585327 0.003616000059992075 -0.20199599862098694
vn -0.9732289910316467 -0.06100500002503395 -0.22159400582313538
vn 0.6747419834136963 0.6930239796638489 -0.2538520097732544
vn -0.2005700021982193 0.8064429759979248 -0.5562570095062256
vn -0.9724040031433105 0.23266400396823883 -0.017260000109672546
vn -0.9802849888801575 -0.07997100055217743 0.1806820034980774
vn 0.8293499946594238 0.14395800232887268 -0.5398650169372559
vn 0.6706759929656982 -0.25140100717544556 0.6978470087051392
vn -0.06554599851369858 -0.46614599227905273 0.8822759985923767
vn 0.9609249830245972 -0.1465809941291809 0.2348109930753708
vn -0.8958209753036499 -0.2642329931259155 0.3573310077190399
vn 0.9550889730453491 -0.22606000304222107 -0.19157999753952026
vn -0.989326000213623 0.1445389986038208 -0.018502000719308853
vn 0.6798779964447021 -0.41274499893188477 -0.606141984462738
vn -0.9710109829902649 -0.09705600142478943 0.21844300627708435
vn -0.961575984954834 0.2625010013580322 0.0803999975323677
vn -0.2186499983072281 0.18340100347995758 -0.9584130048751831
vn -0.9990900158882141 0.006525999866425991 -0.04214100167155266
vn -0.220210000872612 -0.3118709921836853 -0.924252986907959
vn 0.6221100091934204 -0.41408100724220276 0.6644669771194458
vn 0.037546999752521515 -0.475147008895874 0.8791049718856812
vn 0.8959119915962219 -0.38501399755477905 0.2215999960899353
vn -0.6980519890785217 -0.2950020134449005 0.6524549722671509
vn 0.9101070165634155 -0.3749780058860779 -0.1763409972190857
vn -0.9802939891815186 0.03379800170660019 0.1946289986371994
vn 0.6795600056648254 -0.44151198863983154 -0.5858880281448364
vn -0.9863200187683105 0.12882199883460999 -0.1028439998626709
vn -0.10320600122213364 -0.3088560104370117 -0.9454929828643799
vn -0.9447829723358154 0.13837000727653503 -0.29705101251602173
vn -0.8262119889259338 0.035252999514341354 -0.5622559785842896
vn 0.6116880178451538 -0.5865820050239563 0.5308089852333069
vn 0.04492799937725067 -0.5631070137023926 0.8251619935035706
vn 0.7960489988327026 -0.5863479971885681 0.15000499784946442
vn -0.5903170108795166 -0.49592599272727966 0.6368539929389954
vn 0.8676249980926514 -0.49037599563598633 -0.0822099968791008
vn -0.8701279759407043 -0.44136399030685425 0.21926100552082062
vn 0.7772790193557739 -0.4224959909915924 -0.46619200706481934
vn -0.8980079889297485 -0.4181930124759674 -0.1367339938879013
vn 0.04719800129532814 -0.5016840100288391 -0.8637629747390747
vn -0.7114449739456177 -0.4599109888076782 -0.5313460230827332
vn 0.46599000692367554 -0.7950599789619446 0.3882429897785187
vn 0.07972700148820877 -0.8311769962310791 0.550262987613678
vn 0.6457859873771667 -0.7543079853057861 0.1182359978556633
vn -0.3079969882965088 -0.8280349969863892 0.4685029983520508
vn 0.6992800235748291 -0.7145519852638245 -0.020601000636816025
vn -0.5582230091094971 -0.8073549866676331 0.19122099876403809
vn 0.5990039706230164 -0.7599020004272461 -0.25247400999069214
vn -0.6104410290718079 -0.7860289812088013 -0.09757699817419052
vn 0.0704059973359108 -0.8669580221176147 -0.49338299036026
vn -0.449506014585495 -0.8265950083732605 -0.33865201473236084
vn 0.0962430015206337 -0.9921910166740417 0.07933100312948227
f 3//3 2//2 1//1
f 3//3 1//1 4//4
f 2//2 6//6 5//5 1//1
f 1//1 5//5 7//7 4//4
f 3//3 8//8 2//2
f 8//8 9//9 6//6 2//2
f 3//3 4//4 10//10
f 3//3 10//10 11//11
f 3//3 11//11 12//12
f 3//3 12//12 13//13
f 3//3 13//13 14//14
f 3//3 14//14 15//15
f 3//3 15//15 8//8
f 4//4 7//7 16//16 10//10
f 6//6 18//18 17//17 5//5
f 5//5 17//17 19//19 7//7
f 9//9 20//20 18//18 6//6
f 7//7 19//19 21//21 16//16
f 15//15 22//22 9//9 8//8
f 22//22 23//23 20//20 9//9
f 10//10 16//16 24//24 11//11
f 11//11 24//24 25//25 12//12
f 12//12 25//25 26//26 13//13
f 13//13 26//26 27//27 14//14
f 14//14 27//27 22//22 15//15
f 16//16 21//21 28//28 24//24
f 18//18 30//30 29//29 17//17
f 17//17 29//29 31//31 19//19
f 20//20 32//32 30//30 18//18
f 19//19 31//31 33//33 21//21
f 23//23 34//34 32//32 20//20
f 21//21 33//33 35//35 28//28
f 27//27 36//36 23//23 22//22
f 36//36 37//37 34//34 23//23
f 24//24 28//28 38//38 25//25
f 25//25 38//38 39//39 26//26
f 26//26 39//39 36//36 27//27
f 28//28 35//35 40//40 38//38
f 30//30 42//42 41//41 29//29
f 29//29 41//41 43//43 31//31
f 32//32 44//44 42//42 30//30
f 31//31 43//43 45//45 33//33
f 34//34 46//46 44//44 32//32
f 33//33 45//45 47//47 35//35
f 37//37 48//48 46//46 34//34
f 35//35 47//47 49//49 40//40
f 39//39 50//50 37//37 36//36
f 50//50 51//51 48//48 37//37
f 38//38 40//40 50//50 39//39
f 40//40 49//49 51//51 50//50
f 42//42 53//53 52//52 41//41
f 41//41 52//52 54//54 43//43
f 44//44 55//55 53//53 42//42
f 43//43 54//54 56//56 45//45
f 46//46 57//57 55//55 44//44
f 45//45 56//56 58//58 47//47
f 48//48 59//59 57//57 46//46
f 47//47 58//58 60//60 49//49
f 51//51 61//61 59//59 48//48
f 49//49 60//60 61//61 51//51
f 53//53 63//63 62//62 52//52
f 52//52 62//62 64//64 54//54
f 55//55 65//65 63//63 53//53
f 54//54 64//64 66//66 56//56
f 57//57 67//67 65//65 55//55
f 56//56 66//66 68//68 58//58
f 59//59 69//69 67//67 57//57
f 58//58 68//68 70//70 60//60
f 61//61 71//71 69//69 59//59
f 60//60 70//70 71//71 61//61
f 63//63 72//72 62//62
f 62//62 72//72 64//64
f 65//65 72//72 63//63
f 64//64 72//72 66//66
f 67//67 72//72 65//65
f 66//66 72//72 68//68
f 69//69 72//72 67//67
f 68//68 72//72 70//70
f 71//71 72//72 69//69
f 70//70 72//72 71//71
